<svg xmlns="http://www.w3.org/2000/svg" version="1.0" width="60" height="60" viewBox="0 0 2000.000000 2000.000000" preserveAspectRatio="xMidYMid meet">

<g transform="translate(0.000000,2000.000000) scale(0.100000,-0.100000)" fill="#000000" stroke="none">
<path d="M1932 15207 l-62 -63 0 -6405 0 -6405 63 -62 63 -62 6435 0 6435 0 62 63 62 63 0 6405 0 6405 -63 62 -63 62 -6435 0 -6435 0 -62 -63z m12558 -6467 l0 -6030 -6060 0 -6060 0 0 6030 0 6030 6060 0 6060 0 0 -6030z"/>
<path d="M8079 6543 l-797 -3 -7 -406 c-4 -223 -5 -407 -2 -410 2 -3 440 2 972 11 532 9 970 14 972 11 2 -2 -437 -430 -976 -950 l-981 -947 0 -359 0 -360 1599 0 1599 0 6 198 c3 108 9 281 12 385 6 178 5 187 -12 187 -139 0 -1999 41 -2001 44 -3 2 443 435 989 963 l993 959 3 342 2 342 -787 -2 c-434 -2 -1146 -4 -1584 -5z"/>
<path d="M4308 6515 c-5 -11 -345 -767 -757 -1680 -412 -913 -748 -1661 -747 -1662 7 -8 791 -52 797 -46 4 5 75 158 159 341 l153 332 887 0 887 0 153 -332 c84 -183 155 -336 159 -341 6 -6 790 38 797 46 1 1 -339 758 -756 1682 l-758 1680 -482 0 c-474 0 -483 0 -492 -20z m764 -1378 c147 -320 270 -590 274 -599 6 -17 -24 -18 -546 -18 -522 0 -552 1 -546 18 16 44 542 1182 546 1182 3 0 125 -262 272 -583z"/>
</g>
</svg>
